<svg xmlns="http://www.w3.org/2000/svg" xmlns:xlink="http://www.w3.org/1999/xlink" width="420" height="246" fill="none" viewBox="0 0 420 246">
  <g class="windmill">
    <path fill="#0089D1" d="M0 0h420v246H0z"/>
    <path stroke="#FF5ACD" stroke-miterlimit="10" d="M110.5 220.5c60.751 0 110-49.249 110-110S171.251.5 110.5.5.5 49.749.5 110.5s49.249 110 110 110Z" class="circle delete"/>
    <path fill="#DBDBDB" d="M116.51 106.15h-9.43v9.99h9.43v-9.99Z" class="boks"/>
    <path fill="url(#a)" d="M114.14 116.14C115.46 170.46 115.2 241 115.2 241l9.33 2.81v1.69H99.05v-1.69l9.33-2.81s-.26-70.54 1.06-124.86h4.7Z" class="stem"/>
    <g class="blades">
      <path fill="#fff" d="M113.38 107.42c-.48-.2-1.02-.32-1.58-.32-.18 0-.34.03-.51.05v-.05c-16.51-6.41-47.69-28.09-98.87-44.61-.26-.09-1-.22-1 0s.92.54.92.54c45.06 15.5 75.3 33.52 96.69 51.07.72.67 1.69 1.1 2.76 1.1 2.24 0 4.05-1.81 4.05-4.05 0-1.68-1.02-3.12-2.47-3.73h.01Z" class="Vector"/>
      <path fill="#fff" d="M114.245 114.408a4.131 4.131 0 0 0 1.067-1.208c.09-.156.144-.31.212-.467l.043.025c13.806-11.093 48.172-27.256 88.069-63.319.207-.18.69-.756.5-.866-.191-.11-.928.527-.928.527-35.954 31.273-66.679 48.451-92.573 58.201a4.05 4.05 0 0 0-2.333 1.84 4.045 4.045 0 0 0 1.483 5.532 4.043 4.043 0 0 0 4.465-.274l-.005.009Z" class="Vector"/>
      <path fill="#fff" d="M107.774 111.659c.067.516.233 1.043.513 1.528.09.156.196.28.298.417l-.043.025c2.703 17.503-.482 55.346 10.801 107.929.052.27.31.976.5.866.191-.11.008-1.067.008-1.067-9.107-46.773-8.621-81.972-4.117-109.271a4.054 4.054 0 0 0-.428-2.94 4.045 4.045 0 0 0-5.532-1.482 4.042 4.042 0 0 0-1.995 4.004l-.005-.009Z" class="Vector"/>
    </g>
    <path fill="url(#b)" d="M115.84 111.15c0 2.24-1.81 4.05-4.05 4.05-2.24 0-4.05-1.81-4.05-4.05 0-2.24 1.81-4.05 4.05-4.05a4.044 4.044 0 0 1 4.05 4.05Z" class="circle"/>
    <path fill="#D9D9D9" d="M111.79 111.15h11.478v9.409H111.79z" class="measure"/>
    <path fill="#fff" d="M388.509 185.5h-26.541l7.932 23.389h.203v18.305h-22.779v17.084h3.727v1.222h45.006v-1.222h.588v-35.592h-.273l-7.863-23.186Z" class="munch"/>
    <path fill="#fff" d="M244.529 145.18h6.613V128.5l16.673 16.68V245.5h-23.286V145.18Z" class="plaza"/>
  </g>
  <defs>
    <linearGradient id="a" x1="111.79" x2="111.79" y1="116.14" y2="245.5" class="a" gradientUnits="userSpaceOnUse">
      <stop stop-color="#E3E3E3"/>
      <stop offset=".464" stop-color="#fff"/>
    </linearGradient>
    <pattern id="b" width="1" height="1" class="b" patternContentUnits="objectBoundingBox">
      <use xlink:href="#c" transform="translate(-.184) scale(.00111)"/>
    </pattern>
  </defs>
</svg>
